<svg xmlns="http://www.w3.org/2000/svg" height="800" width="1200" viewBox="-121.4262 -66.80475 1052.3604 400.8285"><path d="M66.497 69.841h-7.583V26.156c0-3.451.211-7.674.636-12.669h-.182c-.727 2.937-1.378 5.041-1.953 6.312L35.164 69.841H31.44L9.235 20.162c-.636-1.453-1.287-3.678-1.953-6.675h-.181c.242 2.604.363 6.857.363 12.76v43.594H.107V4.723h10.081l19.98 45.41c1.544 3.481 2.543 6.085 2.997 7.811h.272c1.301-3.572 2.346-6.236 3.133-7.992L56.961 4.723h9.536zm19.935-58.307c-1.333 0-2.468-.454-3.406-1.362-.938-.908-1.408-2.059-1.408-3.451s.469-2.55 1.408-3.474c.938-.923 2.073-1.385 3.406-1.385 1.362 0 2.521.462 3.474 1.385.954.923 1.431 2.082 1.431 3.474 0 1.333-.477 2.468-1.431 3.406-.953.938-2.112 1.407-3.474 1.407zm3.633 58.307h-7.447v-46.5h7.447zm46.772-2.134c-3.572 2.149-7.811 3.224-12.715 3.224-6.63 0-11.981-2.157-16.053-6.471-4.072-4.314-6.107-9.907-6.107-16.779 0-7.659 2.195-13.812 6.584-18.459 4.389-4.647 10.247-6.971 17.574-6.971 4.087 0 7.689.757 10.808 2.271v7.629c-3.451-2.422-7.145-3.633-11.08-3.633-4.753 0-8.65 1.703-11.693 5.108-3.042 3.406-4.563 7.879-4.563 13.419 0 5.449 1.431 9.748 4.291 12.896 2.861 3.149 6.698 4.723 11.512 4.723 4.057 0 7.871-1.347 11.443-4.042v7.085zm35.511-36.828c-1.302-.999-3.179-1.499-5.631-1.499-3.179 0-5.835 1.499-7.97 4.496-2.134 2.997-3.201 7.084-3.201 12.261v23.704h-7.447v-46.5h7.447v9.582h.182c1.06-3.27 2.679-5.82 4.859-7.652 2.18-1.831 4.616-2.747 7.311-2.747 1.937 0 3.421.212 4.45.636zm26.293 40.052c-6.873 0-12.359-2.172-16.461-6.517-4.102-4.344-6.153-10.104-6.153-17.278 0-7.811 2.134-13.911 6.403-18.3 4.269-4.389 10.036-6.584 17.301-6.584 6.932 0 12.344 2.134 16.234 6.403 3.89 4.269 5.835 10.188 5.835 17.755 0 7.417-2.097 13.358-6.29 17.823s-9.816 6.698-16.869 6.698zm.545-42.413c-4.784 0-8.567 1.627-11.353 4.882-2.786 3.254-4.178 7.742-4.178 13.464 0 5.51 1.408 9.854 4.223 13.033 2.815 3.179 6.584 4.768 11.307 4.768 4.813 0 8.514-1.559 11.103-4.677 2.588-3.118 3.882-7.553 3.882-13.305 0-5.813-1.294-10.292-3.882-13.441-2.588-3.15-6.289-4.724-11.102-4.724zm31.696 39.643v-7.992c4.057 2.997 8.521 4.496 13.396 4.496 6.539 0 9.809-2.18 9.809-6.539 0-1.241-.28-2.293-.84-3.156-.561-.862-1.317-1.627-2.271-2.293-.954-.666-2.074-1.264-3.36-1.794a223.01 223.01 0 00-4.155-1.657c-2.059-.817-3.868-1.642-5.427-2.475-1.559-.833-2.86-1.771-3.905-2.815a10.468 10.468 0 01-2.361-3.565c-.53-1.332-.794-2.891-.794-4.677 0-2.18.5-4.109 1.499-5.79.999-1.68 2.331-3.088 3.996-4.223 1.665-1.136 3.564-1.991 5.699-2.566a25.282 25.282 0 016.607-.863c4.026 0 7.629.697 10.808 2.089v7.538c-3.421-2.24-7.356-3.36-11.807-3.36-1.393 0-2.649.159-3.769.477-1.12.318-2.082.765-2.884 1.34-.802.575-1.423 1.264-1.861 2.066a5.442 5.442 0 00-.659 2.656c0 1.211.219 2.225.659 3.042.438.817 1.082 1.544 1.93 2.18.847.636 1.877 1.211 3.088 1.726 1.21.515 2.588 1.075 4.132 1.68 2.059.788 3.905 1.597 5.54 2.43 1.635.833 3.027 1.771 4.178 2.815a11.012 11.012 0 012.657 3.61c.62 1.362.931 2.982.931 4.859 0 2.301-.507 4.299-1.521 5.994-1.014 1.696-2.369 3.104-4.064 4.223-1.696 1.12-3.648 1.953-5.858 2.498-2.21.545-4.526.817-6.948.817-4.786-.001-8.933-.925-12.445-2.771zm61.713 2.77c-6.873 0-12.359-2.172-16.462-6.517-4.103-4.344-6.153-10.104-6.153-17.278 0-7.811 2.135-13.911 6.403-18.3 4.269-4.389 10.036-6.584 17.302-6.584 6.932 0 12.344 2.134 16.233 6.403 3.889 4.269 5.835 10.188 5.835 17.755 0 7.417-2.096 13.358-6.289 17.823s-9.816 6.698-16.869 6.698zm.545-42.413c-4.784 0-8.568 1.627-11.354 4.882-2.786 3.255-4.178 7.742-4.178 13.464 0 5.51 1.408 9.854 4.224 13.033 2.816 3.179 6.585 4.768 11.308 4.768 4.813 0 8.514-1.559 11.103-4.677 2.588-3.118 3.882-7.553 3.882-13.305 0-5.813-1.294-10.292-3.882-13.441-2.589-3.15-6.29-4.724-11.103-4.724zm55.809-20.98c-1.453-.817-3.104-1.226-4.949-1.226-5.208 0-7.811 3.285-7.811 9.854v7.175h10.898v6.357h-10.898v40.143h-7.402V29.698h-7.947v-6.357h7.947v-7.538c0-4.874 1.408-8.726 4.223-11.557C335.826 1.416 339.336 0 343.544 0c2.271 0 4.072.272 5.404.817v6.721zm29.379 61.849c-1.756.969-4.071 1.453-6.947 1.453-8.144 0-12.215-4.541-12.215-13.623V29.698h-7.992v-6.357h7.992V11.988l7.447-2.407V23.34h11.715v6.357h-11.715V55.9c0 3.118.529 5.343 1.589 6.675 1.06 1.333 2.815 1.998 5.268 1.998 1.877 0 3.497-.515 4.858-1.544zM0 264.242V86.393h49.113c62.672 0 94.01 28.897 94.01 86.693 0 27.451-8.703 49.506-26.107 66.166-17.406 16.662-40.701 24.99-69.887 24.99zm20.836-158.997v140.146h26.541c23.316 0 41.464-6.242 54.446-18.727 12.98-12.484 19.472-30.18 19.472-53.082 0-45.558-24.227-68.337-72.678-68.337H20.836zm164.951-.248c-3.639 0-6.74-1.24-9.302-3.721-2.564-2.48-3.845-5.622-3.845-9.426 0-3.802 1.281-6.965 3.845-9.488 2.562-2.521 5.663-3.783 9.302-3.783 3.721 0 6.883 1.262 9.488 3.783 2.604 2.523 3.907 5.686 3.907 9.488 0 3.639-1.302 6.74-3.907 9.302-2.605 2.564-5.767 3.845-9.488 3.845zm9.922 159.245h-20.34v-127h20.34zM303.113 157.83c-3.556-2.729-8.682-4.092-15.379-4.092-8.682 0-15.938 4.092-21.766 12.277-5.83 8.186-8.744 19.348-8.744 33.486v64.74h-20.34v-127h20.34v26.17h.496c2.894-8.93 7.317-15.895 13.271-20.898 5.953-5.002 12.607-7.504 19.968-7.504 5.29 0 9.343.58 12.154 1.736zm120.799 47.998h-89.668c.329 14.139 4.134 25.053 11.41 32.742 7.274 7.689 17.28 11.533 30.014 11.533 14.304 0 27.45-4.713 39.44-14.139v19.1c-11.162 8.105-25.921 12.154-44.277 12.154-17.942 0-32.041-5.766-42.292-17.301-10.253-11.533-15.379-27.76-15.379-48.68 0-19.76 5.601-35.861 16.806-48.307 11.202-12.443 25.114-18.666 41.733-18.666 16.619 0 29.475 5.376 38.571 16.123 9.096 10.75 13.643 25.674 13.643 44.773v10.668zm-20.836-17.24c-.082-11.738-2.914-20.877-8.496-27.408-5.58-6.531-13.332-9.799-23.253-9.799-9.593 0-17.735 3.432-24.433 10.295-6.698 6.863-10.833 15.834-12.402 26.912zm138.162 69.826c-9.756 5.869-21.332 8.805-34.727 8.805-18.107 0-32.723-5.891-43.842-17.672-11.121-11.783-16.682-27.057-16.682-45.828 0-20.916 5.994-37.723 17.984-50.414 11.986-12.691 27.986-19.039 47.996-19.039 11.162 0 21.002 2.068 29.518 6.201v20.836c-9.426-6.613-19.514-9.922-30.262-9.922-12.98 0-23.627 4.652-31.936 13.953-8.311 9.303-12.465 21.518-12.465 36.648 0 14.883 3.906 26.625 11.721 35.223 7.813 8.602 18.293 12.898 31.439 12.898 11.08 0 21.498-3.678 31.254-11.037v19.348zm89.67 4.588c-4.797 2.646-11.121 3.969-18.977 3.969-22.242 0-33.361-12.402-33.361-37.207v-75.158h-21.828v-17.363h21.828v-31.005l20.34-6.573v37.579h31.998v17.363H598.91v71.563c0 8.516 1.445 14.594 4.34 18.23 2.895 3.641 7.689 5.457 14.387 5.457 5.127 0 9.551-1.404 13.271-4.217zm152.672 1.24h-25.424l-40.928-68.088c-1.24-2.066-2.605-5.002-4.094-8.807h-.496c-.826 1.904-2.232 4.838-4.217 8.807l-42.168 68.088h-25.549l59.531-89.42-54.818-88.429h25.549l36.34 62.507a126.084 126.084 0 016.324 12.402h.496c2.646-5.457 4.961-9.754 6.945-12.898L758.9 86.393h23.936l-55.934 88.181zM395.046 34.787c-3.442 0-6.377-1.214-8.807-3.644-2.43-2.429-3.644-5.365-3.644-8.807s1.214-6.377 3.644-8.807c2.429-2.429 5.365-3.644 8.807-3.644 3.432 0 6.361 1.215 8.791 3.644 2.43 2.43 3.645 5.365 3.645 8.807s-1.215 6.378-3.645 8.807c-2.429 2.43-5.359 3.644-8.791 3.644zm0-23.441c-3.032 0-5.622 1.074-7.769 3.221-2.147 2.147-3.221 4.737-3.221 7.77 0 3.033 1.073 5.62 3.221 7.761 2.147 2.142 4.737 3.212 7.769 3.212 3.033 0 5.62-1.071 7.762-3.212 2.142-2.141 3.213-4.729 3.213-7.761s-1.071-5.622-3.213-7.77c-2.141-2.148-4.728-3.221-7.762-3.221zm6.043 18.776H398.4l-1.727-3.802c-.874-1.903-1.814-2.855-2.822-2.855h-1.461v6.657h-2.208V14.284h4.45c1.848 0 3.272.388 4.274 1.162 1.001.775 1.503 1.826 1.503 3.154 0 1.085-.352 2.009-1.055 2.772-.703.763-1.686 1.278-2.947 1.544v.066c.875.188 1.744 1.162 2.607 2.922zm-8.698-13.945v5.412h2.375c2.18 0 3.27-.907 3.27-2.723 0-.974-.293-1.666-.879-2.075-.588-.409-1.518-.614-2.789-.614zm404.682 96.508c-3.442 0-6.378-1.214-8.808-3.644-2.43-2.429-3.644-5.365-3.644-8.807s1.214-6.377 3.644-8.807c2.43-2.429 5.365-3.644 8.808-3.644 3.431 0 6.36 1.215 8.79 3.644 2.43 2.43 3.645 5.365 3.645 8.807s-1.215 6.378-3.645 8.807c-2.43 2.43-5.36 3.644-8.79 3.644zm0-23.441c-3.032 0-5.622 1.074-7.77 3.221-2.147 2.147-3.221 4.737-3.221 7.77 0 3.033 1.073 5.62 3.221 7.761s4.737 3.212 7.77 3.212c3.033 0 5.62-1.071 7.761-3.212 2.143-2.142 3.213-4.729 3.213-7.761s-1.07-5.622-3.213-7.77c-2.141-2.148-4.729-3.221-7.761-3.221zm6.043 18.776h-2.689l-1.727-3.802c-.874-1.903-1.815-2.855-2.822-2.855h-1.461v6.657h-2.208V92.182h4.449c1.848 0 3.273.388 4.275 1.162 1.001.775 1.502 1.826 1.502 3.154 0 1.085-.352 2.009-1.055 2.772-.703.763-1.685 1.278-2.946 1.544v.066c.874.188 1.743 1.162 2.606 2.922zm-8.699-13.945v5.412h2.374c2.18 0 3.271-.907 3.271-2.723 0-.974-.294-1.666-.88-2.075-.587-.409-1.517-.614-2.789-.614z"/></svg>