<svg xmlns="http://www.w3.org/2000/svg" height="800" width="1200" viewBox="-14.507625 -39.158275 125.73275 234.94965"><path d="M.0055 78.3996l48.6607-25.9677L96.6995 78.211l-47.9916 25.99z" fill="#009f42"/><path d="M.0055 78.3996l48.6607-25.9677L96.6995 78.211l-47.9916 25.99z" fill="#01c853"/><path d="M48.6662 52.4319L96.6995 78.211l-47.9916 25.99z" fill="#009f42"/><path d="M48.6662 82.3821l48.0333-4.171-47.9916 25.99-.0418-21.819z" fill="#007831"/><path d="M48.666 82.3821L.0056 78.3996l48.6189 25.8016.0417-21.8191z" fill="#009f42"/><path d="M0 85.305c17.045 9.041 34.806 18.5175 48.5573 25.8445l48.1602-25.8372C79.28 111.2238 64.7553 132.777 48.557 156.6331 32.3387 132.827 14.4178 106.55 0 85.305z" fill="#009f42"/><path d="M0 85.305c17.045 9.041 34.806 18.5175 48.5573 25.8445l48.1602-25.8372C79.28 111.2238 64.7553 132.777 48.557 156.6331 32.3387 132.827 14.4178 106.55 0 85.305z" fill="#01c853"/><path d="M48.5573 111.1495l48.1602-25.8372C79.28 111.2238 48.557 156.6331 48.557 156.6331z" fill="#009f42"/><path d="M48.5573 111.1495l48.1602-25.8372C79.28 111.2238 64.7553 132.777 48.557 156.6331z" fill="#009f42"/><path d="M48.5477 45.2103L.0057 70.7716 48.337 0l48.3623 70.9262z" fill="#01c853"/><path d="M48.5478 45.2103L48.337 0l48.3623 70.9262z" fill="#009f42"/></svg>