<svg xmlns="http://www.w3.org/2000/svg" height="800" width="1200" viewBox="-138.48795 -230.82625 1200.2289 1384.9575"><path fill="none" stroke-width="10.597" stroke-dasharray="39.852" stroke="gray" d="M868.459 254.377a456.67 456.67 0 11-158.18-175.67"/><circle fill="navy" r="353.21" cx="461.559" cy="461.697"/><circle fill="#fff" r="103.45" cx="607.869" cy="315.397"/><circle fill="navy" r="103.46" cx="814.779" cy="108.487"/><path d="M365.879 638.307V612.24h-114.44V406.56h-29.564v231.75h144.01m158.874-.003v-166.58h-26.385v91.872c0 34.015-17.802 56.267-45.46 56.267-20.98 0-34.332-12.716-34.332-32.743v-115.4h-26.385v125.89c0 27.657 20.663 45.459 53.089 45.459 24.478 0 40.055-8.583 55.632-30.518v25.75h23.842m193.799-.637V617.64c-2.861.636-4.133.636-5.722.636-9.22 0-14.305-4.769-14.305-13.034v-92.825c0-29.564-21.617-45.46-62.625-45.46-40.373 0-65.17 15.578-66.758 54.043h26.703c2.225-20.345 14.305-29.564 39.1-29.564 23.843 0 37.195 8.9 37.195 24.796v6.993c0 11.126-6.676 15.895-27.657 18.438-37.512 4.769-43.234 6.04-53.406 10.173-19.392 7.948-29.246 22.888-29.246 43.234 0 30.2 20.98 48.002 54.678 48.002 21.299 0 41.962-8.9 56.585-24.478 2.86 12.716 14.305 21.935 27.339 21.935 5.404 0 9.537-.635 18.12-2.86m-46.413-56.904c0 23.842-24.16 39.101-49.91 39.101-20.663 0-32.743-7.311-32.743-25.432 0-17.484 11.762-25.114 40.055-29.246 27.975-3.814 33.697-5.086 42.598-9.219v24.796" fill="#fff"/></svg>