<?xml version="1.0" encoding="utf-8"?>
<!-- Generator: Adobe Illustrator 25.0.1, SVG Export Plug-In . SVG Version: 6.00 Build 0)  -->
<svg version="1.0" id="katman_1" xmlns="http://www.w3.org/2000/svg" xmlns:xlink="http://www.w3.org/1999/xlink" x="0px" y="0px"
	 viewBox="0 0 600 400" style="enable-background:new 0 0 600 400;" xml:space="preserve">
<style type="text/css">
	.st0{fill:#1D1D1B;}
</style>
<desc>Created with Sketch.</desc>
<g>
	<g>
		<path class="st0" d="M151.6,234.6v-16.9h-18.2c-4.9,0-9.5,2.6-12.1,6.9l-5.9,10H151.6z"/>
		<path class="st0" d="M93.7,169.5v16.9h47.9l10-16.9H93.7z"/>
		<path class="st0" d="M117.3,196.3l-23.5,38.3h20.1l28.2-45.8h-11.1C125.3,188.8,120.1,191.7,117.3,196.3z"/>
		<path class="st0" d="M192.7,219.7c-9.8,0-17-7.2-17-17c0-9.6,7.3-17,17.1-17c9.8,0,17.1,7.4,17.1,17
			C209.9,212.3,202.5,219.7,192.7,219.7z M192.8,213.7c6.2,0,10.7-4.7,10.7-11c0-6.3-4.4-11-10.7-11c-6.3,0-10.7,4.8-10.7,11
			C182.1,209,186.5,213.7,192.8,213.7z M216.4,229.8v-35.3h5.9v3.1h0.3c0.6-1,2.9-3.7,7.3-3.7c6.8,0,11.5,5.1,11.5,12.8
			c0,7.7-4.6,13-11.3,13c-4.3,0-6.6-2.4-7.4-3.8h-0.3v13.9H216.4z M228.9,214.1c3.9,0,6.5-3,6.5-7.4c0-4.5-2.6-7.4-6.6-7.4
			c-4,0-6.5,3.2-6.5,7.4C222.3,211.3,225.1,214.1,228.9,214.1z M258.7,219.7c-7.2,0-12.3-5.4-12.3-12.8c0-7.8,5.1-13,12.3-13
			c7.8,0,12.1,5.8,12.1,12.8v1.9h-18.5c0.2,3.7,2.7,6.3,6.6,6.3c3,0,5.2-1.4,6.1-3.4h5.6C269.4,216.4,265,219.7,258.7,219.7z
			 M252.4,204.2h12.7c-0.3-3.3-2.8-5.5-6.3-5.5C255.4,198.7,252.8,201.1,252.4,204.2z M277.3,219v-24.6h5.7v3h0.3
			c1-1.8,3.4-3.6,6.9-3.6c5.5,0,8.8,3.9,8.8,9.1V219h-6v-14.5c0-3-1.9-5-4.7-5c-2.9,0-5,2.3-5,5.4V219H277.3z M305,219v-5.6
			l16.9-21.5v-0.3h-16.3v-5.4h23.9v5.5l-16.9,21.5v0.4h17v5.4H305z M346,219.7c-7.2,0-12.3-5.4-12.3-12.8c0-7.8,5.1-13,12.3-13
			c7.8,0,12.1,5.8,12.1,12.8v1.9h-18.5c0.2,3.7,2.7,6.3,6.6,6.3c3,0,5.2-1.4,6.1-3.4h5.6C356.6,216.4,352.3,219.7,346,219.7z
			 M339.6,204.2h12.7c-0.3-3.3-2.8-5.5-6.3-5.5C342.6,198.7,340,201.1,339.6,204.2z M364.5,229.8v-35.3h5.9v3.1h0.3
			c0.6-1,2.9-3.7,7.3-3.7c6.8,0,11.5,5.1,11.5,12.8c0,7.7-4.6,13-11.3,13c-4.3,0-6.6-2.4-7.4-3.8h-0.3v13.9H364.5z M376.9,214.1
			c3.9,0,6.5-3,6.5-7.4c0-4.5-2.6-7.4-6.6-7.4c-4,0-6.5,3.2-6.5,7.4C370.4,211.3,373.2,214.1,376.9,214.1z M396.1,229.8v-35.3h5.9
			v3.1h0.3c0.6-1,2.9-3.7,7.3-3.7c6.8,0,11.5,5.1,11.5,12.8c0,7.7-4.6,13-11.3,13c-4.3,0-6.6-2.4-7.4-3.8h-0.3v13.9H396.1z
			 M408.5,214.1c3.9,0,6.5-3,6.5-7.4c0-4.5-2.6-7.4-6.6-7.4c-4,0-6.5,3.2-6.5,7.4C402,211.3,404.7,214.1,408.5,214.1z M438.4,219.7
			c-7.2,0-12.3-5.4-12.3-12.8c0-7.8,5.1-13,12.3-13c7.8,0,12.1,5.8,12.1,12.8v1.9h-18.5c0.2,3.7,2.7,6.3,6.6,6.3
			c3,0,5.2-1.4,6.1-3.4h5.6C449,216.4,444.7,219.7,438.4,219.7z M432,204.2h12.7c-0.3-3.3-2.8-5.5-6.3-5.5
			C435,198.7,432.4,201.1,432,204.2z M462.9,219c-4.3,0-6.7-2.6-6.7-6.9V184h6v27.6c0,1.4,0.7,2.2,1.9,2.2h1v5.3H462.9z
			 M473.9,191.2c-2.2,0-3.7-1.4-3.7-3.6c0-2.1,1.5-3.5,3.7-3.5c2.2,0,3.7,1.4,3.7,3.5C477.7,189.8,476.1,191.2,473.9,191.2z
			 M470.9,219v-24.6h6V219H470.9z M484.3,219v-24.6h5.7v3h0.3c1-1.8,3.4-3.6,6.9-3.6c5.5,0,8.8,3.9,8.8,9.1V219h-6v-14.5
			c0-3-1.9-5-4.7-5c-2.9,0-5,2.3-5,5.4V219H484.3z"/>
	</g>
</g>
</svg>
