<svg xmlns="http://www.w3.org/2000/svg" height="800" width="1200" preserveAspectRatio="xMidYMid" viewBox="-108.1641 -139.0155 937.4222 834.093"><defs><linearGradient gradientTransform="matrix(1.22194 0 0 .81837 -.906 -3)" spreadMethod="pad" gradientUnits="userSpaceOnUse" y2="593.787" y1="3.666" x2="590.863" x1=".741" id="a"><stop stop-color="#CBCED0" offset="0"/><stop stop-color="#84838B" offset="1"/></linearGradient><linearGradient gradientTransform="matrix(.98995 0 0 1.01015 -.906 -3)" spreadMethod="pad" gradientUnits="userSpaceOnUse" y2="553.442" y1="151.401" x2="703.068" x1="301.026" id="b"><stop stop-color="#276DC3" offset="0"/><stop stop-color="#165CAA" offset="1"/></linearGradient></defs><path fill-rule="evenodd" fill="url(#a)" d="M360.547 482.937C161.423 482.937 0 374.828 0 241.469 0 108.109 161.423 0 360.547 0c199.125 0 360.547 108.109 360.547 241.469 0 133.359-161.422 241.468-360.547 241.468zm55.188-388.531c-151.352 0-274.047 73.908-274.047 165.078s122.695 165.078 274.047 165.078c151.351 0 263.046-50.529 263.046-165.078 0-114.513-111.695-165.078-263.046-165.078z"/><path fill-rule="evenodd" fill="url(#b)" d="M549.094 374s21.822 6.585 34.5 13c4.399 2.226 12.01 6.668 17.5 12.5 5.378 5.712 8 11.5 8 11.5l86 145-139 .062-65-122.062s-13.31-22.869-21.5-29.5c-6.832-5.531-9.745-7.5-16.5-7.5h-33.026l.026 158.974-123 .052V149.938h247s112.5 2.029 112.5 109.062-107.5 115-107.5 115zm-53.5-135.976l-74.463-.048-.037 69.05 74.5-.024s34.5-.107 34.5-35.125c0-35.722-34.5-33.853-34.5-33.853z"/></svg>