<svg xmlns="http://www.w3.org/2000/svg" height="800" width="1200" viewBox="-150 -43.45625 1300 260.7375"><path style="line-height:125%;-inkscape-font-specification:'Gill Sans Ultra Bold, Bold';text-align:start;isolation:auto;mix-blend-mode:normal;solid-color:#000;solid-opacity:1" d="M198.435 0l-35.826 137.998 137.998 35.827 35.826-137.998zM0 15.34v143.165h63.327v-53.006c8.944 0 15.51 4.315 19.7 12.946 4.253 8.631 6.975 21.984 8.163 40.06h65.766c-3.003-28.083-12.228-50.942-27.677-68.58 10.883-7.63 16.325-18.2 16.325-31.71 0-12.26-4.628-22.454-13.885-30.584-9.256-8.194-21.985-12.29-38.184-12.29zm350.645 0v143.165h99.915c15.511 0 27.551-3.596 36.12-10.789 8.631-7.192 12.946-16.793 12.946-28.802 0-7.693-1.906-14.103-5.722-19.232-3.815-5.191-9.413-9.726-16.793-13.604 12.446-7.068 18.67-17.324 18.67-30.771 0-12.322-4.691-22.048-14.073-29.178-9.319-7.192-23.142-10.788-41.467-10.788zm168.125 0v143.165h118.96v-35.932h-55.54V15.341zm298.476 0l55.915 70.738-55.915 72.427h68.861l21.86-28.426 22.703 28.426H1000l-57.603-72.802 54.133-70.362h-68.768l-20.17 26.362-21.11-26.362zm-159.75.286V158.2H800.07V15.626zm-243.43 28.516h3.846c11.133 0 16.7 4.629 16.7 13.885 0 5.129-1.44 8.756-4.316 10.883-2.877 2.064-7.755 3.096-14.635 3.096h-1.595zm-350.74.657h3.847c5.379 0 9.225 1.438 11.539 4.315 2.314 2.815 3.472 6.1 3.472 9.852 0 8.944-5.692 13.415-17.075 13.415h-1.782zm176.328 25.327l26.652 6.92-6.92 26.653-26.65-6.92zm475.36 3.019h27.537v27.535h-27.536zM414.067 96.023h4.409c11.82 0 17.732 5.378 17.732 16.136 0 5.441-1.564 9.288-4.69 11.54-3.066 2.19-8.226 3.283-15.48 3.283h-1.971z" color="#000" font-weight="700" font-size="314" font-family="Gill Sans Ultra Bold"/></svg>