<svg xmlns="http://www.w3.org/2000/svg" height="800" width="1200" viewBox="-150.3282 -273.04775 1302.8444 1638.2865"><defs><clipPath id="a" clipPathUnits="userSpaceOnUse"><path d="M0 1024h1024V0H0z"/></clipPath></defs><path d="M917.783 952.19v-94.746h-35.855v122.747h120.26v-28z"/><g clip-path="url(#a)" transform="matrix(1.33333 0 0 -1.33333 -184.478 1221.524)"><path d="M498.837 117.958h20.085c.498-5.295-1.063-7.971-5.392-8.386-4.293-.411-8.612-.76-12.92-.77-17.903-.044-19.822 2.052-18.737 19.932.02.333.03.666.063.997.67 6.667 3.126 9.189 9.81 9.499 5.15.238 10.316.089 15.476.132 5.373.044 10.5-.337 11.806-6.626h13.198c1.86 10.558-1.6 16.306-11.74 16.9-13.059.767-26.228.648-39.293-.086-8.782-.493-13.292-5.67-13.804-14.27-.444-7.454-.42-14.975-.007-22.434.441-7.953 4.16-11.928 11.938-13.918 2.87-.734 5.785-1.29 8.68-1.928h26c2.091.444 4.177.913 6.274 1.328 5.615 1.11 11.135 2.918 12.264 9.28 1.114 6.278 1.061 12.763 1.546 19.515h-35.247zm-103.4 63.438v91.393h-26.424v-69.795l-54.236 70.22H273.38V181.28h26.308v68.354l1.226.31 53.645-68.547zm47.577 45.635v26.323c12.208 0 24.12.002 36.033-.003 1.662 0 3.323-.048 4.985-.059 14.801-.1 16.353-4.42 14.866-18.979-.484-4.738-4.073-7.103-8.306-7.175-15.731-.268-31.469-.107-47.578-.107m56.443-33.406c.357-4.063.548-8.14.82-12.3h26.391c0 5.758.219 11.061-.045 16.34-.581 11.61-2.289 16.735-13.599 18.696-.592.103-1.114.614-2.506 1.42 11.369 2.53 15.442 10.208 15.981 20.201.267 4.96.176 10.017-.484 14.932-1.604 11.95-5.993 16.673-17.761 18.885a101.743 101.743 0 01-17.843 1.741c-22.818.197-45.638.09-68.458.066-1.78-.002-3.559-.22-5.646-.36v-91.884h26.535v25.35c6.04 0 11.509.111 16.972-.025 9.644-.24 19.344-.086 28.908-1.129 7.832-.854 10.041-4.046 10.735-11.933m73.129 24.754h68.786v18.565h-68.899v16.585h72.852v19.517h-99.79v-91.744h101.018v20.193h-73.967zm-319.109 52.037c.004.918-.563 1.84-.847 2.708h-26.34c0-16.299.052-32.104-.036-47.909-.025-4.314-.31-8.644-.772-12.935-.665-6.161-4.552-10.04-10.412-10.334-12.098-.61-24.283-1.056-36.347-.266-9.717.635-12.873 4.996-12.984 14.895-.19 16.997-.103 33.998-.188 50.997-.009 1.895-.385 3.789-.59 5.67h-26.32c0-22.846-.788-45.02.27-67.106.734-15.35 7.1-21.4 22.59-23.992 22.481-3.765 45.194-3.61 67.677-.266 17.168 2.553 22.995 8.927 23.753 26.069.92 20.79.464 41.644.546 62.47m447.926-53.371l19.515 38.362 19.723-38.362zm2.8 56.306l-49.975-92.133h28.863l8.345 15.905h59.333l8.375-15.847h29.165l-50.248 92.075zM439.286 112.001l-1.233-.292a532757.736 532757.736 0 01-30.02 38.7h-23.4v-51.93h14.433v37.887l1.47.522L430.824 98.4h23.367v51.89h-14.904zm187.996-.026l-1.193-.31c-9.93 12.813-19.858 25.627-29.476 38.039h-23.304V98.583h14.777v39.2l30.889-39.43h23.009v51.189h-14.702zm-295.244 7.284h39.176v10.717H332.04v9.647h41.322v10.827H317.11V98.519h57.303v11.039h-42.375zm338.914.018h38.455v10.44H671.1v9.635h40.57v10.3h-55.84V98.556h56.742v10.952h-41.62zM545.666 98.416h14.301v51.189h-14.301zM312.554 585.913s-10.463 51.999 44.874 114.973c55.342 62.972 96.863 85.871 141.707 97.799l-.078-.046.17.046S464 778.168 464 747.163c0-9 1.435-15.184 3.423-19.315 2.638-5.488 6.816-7.354 10.567-7.372 3.16-.018 5.01 1.281 9.01 2.834V555.386s.433-2.707 2.863-5.915c3.5-4.613 9-10.243 19.335-10.3 17.629.113 39.802 20.026 39.802 20.026v135.964c0 13.832-9.9 30.53-20.39 36.259 0 0 1.43.09 3.744.089 6.926.002 21.784-.79 30.063-7.115 2.3 2.665 39.418 44.665 105.466 57.589l-.032-.037.18.037s-36.531-43.016-47.981-64.348c-2.035-.121-2.332-40.471-1.993-80.79.329-38.92 1.253-77.818 1.789-80.509 0 0 3.898-5.794 13.824-5.844 11.196-.057 30.063 7.195 59.643 38.288l-.001-.001v.001s-.78-1.771-2.35-4.908c-8.476-16.938-39.974-73.721-95.924-106.725l-.003.003-.005-.003-36.29 30.693-.927.774-39.58-41.967-.06.006-.005-.006s-90.232 7.633-127.92 62.015l.179-.065-.047.065s5.707-2.221 12.148-2.342c7.547-.138 15.472 2.619 15.472 15.229v127.85c0 6.529-4.495 13.853-14.362 13.825-8.874-.023-21.614-5.994-39.01-23.843-36.734-37.685-51.99-73.468-51.99-73.468l-.025.136-.06-.136M513 369.156c70.386 0 136.56 27.41 186.33 77.18 49.77 49.771 77.18 115.944 77.18 186.33 0 70.386-27.41 136.559-77.18 186.33-49.77 49.77-115.944 77.18-186.33 77.18-70.386 0-136.56-27.41-186.33-77.18-49.77-49.771-77.18-115.944-77.18-186.33 0-70.386 27.41-136.559 77.18-186.33 49.77-49.77 115.944-77.18 186.33-77.18"/><path d="M513 908.307c152.232 0 275.641-123.409 275.641-275.64 0-152.233-123.409-275.642-275.641-275.642-152.232 0-275.641 123.41-275.641 275.641 0 152.232 123.409 275.641 275.641 275.641m0-559.119c75.72 0 146.907 29.487 200.449 83.03 53.542 53.541 83.028 124.728 83.028 200.448 0 75.72-29.486 146.907-83.028 200.45-53.542 53.54-124.729 83.026-200.449 83.026-75.72 0-146.907-29.486-200.449-83.028s-83.028-124.73-83.028-200.449c0-75.72 29.486-146.907 83.028-200.449S437.28 349.188 513 349.188"/></g></svg>